<svg width="20" height="20" viewBox="0 0 20 20" fill="none" xmlns="http://www.w3.org/2000/svg">
<path d="M15.5559 9.2196L6.65561 0.31951C6.44976 0.113495 6.17496 0 5.88196 0C5.58895 0 5.31416 0.113495 5.10831 0.31951L4.45286 0.974789C4.02636 1.40178 4.02636 2.09576 4.45286 2.52209L11.9266 9.99585L4.44457 17.4779C4.23872 17.6839 4.12506 17.9586 4.12506 18.2514C4.12506 18.5446 4.23872 18.8192 4.44457 19.0254L5.10001 19.6805C5.30603 19.8865 5.58066 20 5.87366 20C6.16667 20 6.44146 19.8865 6.64732 19.6805L15.5559 10.7723C15.7622 10.5656 15.8755 10.2897 15.8749 9.99634C15.8755 9.70187 15.7622 9.4261 15.5559 9.2196Z" fill="#19213C"/>
</svg>
