<svg width="20" height="20" viewBox="0 0 20 20" fill="none" xmlns="http://www.w3.org/2000/svg">
<path d="M4.44411 10.7804L13.3444 19.6805C13.5502 19.8865 13.825 20 14.118 20C14.411 20 14.6858 19.8865 14.8917 19.6805L15.5471 19.0252C15.9736 18.5982 15.9736 17.9042 15.5471 17.4779L8.07335 10.0041L15.5554 2.52209C15.7613 2.31608 15.8749 2.04145 15.8749 1.7486C15.8749 1.45543 15.7613 1.1808 15.5554 0.974625L14.9 0.319508C14.6939 0.113495 14.4193 0 14.1263 0C13.8333 0 13.5585 0.113495 13.3527 0.319508L4.44411 9.22773C4.23777 9.43439 4.12444 9.71033 4.12509 10.0037C4.12444 10.2981 4.23777 10.5739 4.44411 10.7804Z" fill="#19213C"/>
</svg>
