<svg width="13" height="13" viewBox="0 0 13 13" fill="none" xmlns="http://www.w3.org/2000/svg">
<g clip-path="url(#clip0_3242_14430)">
<mask id="path-1-outside-1_3242_14430" maskUnits="userSpaceOnUse" x="-0.696533" y="-0.720215" width="13" height="11" fill="black">
<rect fill="white" x="-0.696533" y="-0.720215" width="13" height="11"/>
<path d="M3.71209 2.18614C5.44627 1.07403 7.66033 1.12227 9.32849 2.21406L8.81306 2.27754C8.52869 2.31309 8.3281 2.57207 8.36111 2.85645C8.39412 3.11797 8.61756 3.31094 8.874 3.31094C8.89431 3.31094 10.7123 3.0875 10.7123 3.0875C10.8494 3.06973 10.9738 3.00117 11.0576 2.89199C11.1414 2.78281 11.1795 2.64571 11.1617 2.5086L10.9408 0.733791C10.9053 0.449416 10.6437 0.246291 10.3619 0.284377C10.0775 0.319924 9.87693 0.578909 9.91248 0.863284L9.98103 1.4041C7.96756 0.0355492 5.26346 -0.0431617 3.15349 1.3127C0.688065 2.89453 -0.337716 6.02266 0.713456 8.75215C0.792167 8.95782 1.04861 9.16348 1.38377 9.04922C1.65545 8.95528 1.78494 8.64551 1.68084 8.37891C0.807401 6.10645 1.66053 3.50391 3.71209 2.18614Z"/>
</mask>
<path d="M3.71209 2.18614C5.44627 1.07403 7.66033 1.12227 9.32849 2.21406L8.81306 2.27754C8.52869 2.31309 8.3281 2.57207 8.36111 2.85645C8.39412 3.11797 8.61756 3.31094 8.874 3.31094C8.89431 3.31094 10.7123 3.0875 10.7123 3.0875C10.8494 3.06973 10.9738 3.00117 11.0576 2.89199C11.1414 2.78281 11.1795 2.64571 11.1617 2.5086L10.9408 0.733791C10.9053 0.449416 10.6437 0.246291 10.3619 0.284377C10.0775 0.319924 9.87693 0.578909 9.91248 0.863284L9.98103 1.4041C7.96756 0.0355492 5.26346 -0.0431617 3.15349 1.3127C0.688065 2.89453 -0.337716 6.02266 0.713456 8.75215C0.792167 8.95782 1.04861 9.16348 1.38377 9.04922C1.65545 8.95528 1.78494 8.64551 1.68084 8.37891C0.807401 6.10645 1.66053 3.50391 3.71209 2.18614Z" fill="#2468E4"/>
<path d="M3.71209 2.18614C5.44627 1.07403 7.66033 1.12227 9.32849 2.21406L8.81306 2.27754C8.52869 2.31309 8.3281 2.57207 8.36111 2.85645C8.39412 3.11797 8.61756 3.31094 8.874 3.31094C8.89431 3.31094 10.7123 3.0875 10.7123 3.0875C10.8494 3.06973 10.9738 3.00117 11.0576 2.89199C11.1414 2.78281 11.1795 2.64571 11.1617 2.5086L10.9408 0.733791C10.9053 0.449416 10.6437 0.246291 10.3619 0.284377C10.0775 0.319924 9.87693 0.578909 9.91248 0.863284L9.98103 1.4041C7.96756 0.0355492 5.26346 -0.0431617 3.15349 1.3127C0.688065 2.89453 -0.337716 6.02266 0.713456 8.75215C0.792167 8.95782 1.04861 9.16348 1.38377 9.04922C1.65545 8.95528 1.78494 8.64551 1.68084 8.37891C0.807401 6.10645 1.66053 3.50391 3.71209 2.18614Z" stroke="#2468E4" stroke-width="0.4" mask="url(#path-1-outside-1_3242_14430)"/>
<mask id="path-2-outside-2_3242_14430" maskUnits="userSpaceOnUse" x="0.836487" y="2.94598" width="13" height="11" fill="black">
<rect fill="white" x="0.836487" y="2.94598" width="13" height="11"/>
<path d="M12.289 4.27578C12.2103 4.07012 11.9539 3.86445 11.6187 3.97871C11.347 4.07266 11.2175 4.38242 11.3216 4.64902C12.1976 6.92148 11.3419 9.52402 9.29038 10.8418C7.5562 11.9539 5.34214 11.9057 3.67397 10.8139L4.1894 10.7504C4.47378 10.7148 4.67436 10.4559 4.64136 10.1715C4.60835 9.90996 4.38491 9.71699 4.12847 9.71699C4.10815 9.71699 2.29018 9.94043 2.29018 9.94043C2.15307 9.9582 2.02866 10.0268 1.94487 10.1359C1.86108 10.2451 1.823 10.3822 1.84077 10.5193L2.06167 12.2941C2.09722 12.5785 2.35874 12.7816 2.64057 12.7436C2.92495 12.708 3.12554 12.449 3.08999 12.1646L3.02143 11.6238C5.03745 12.9898 7.74155 13.0686 9.85405 11.7127C12.3144 10.1334 13.3402 7.00527 12.289 4.27578Z"/>
</mask>
<path d="M12.289 4.27578C12.2103 4.07012 11.9539 3.86445 11.6187 3.97871C11.347 4.07266 11.2175 4.38242 11.3216 4.64902C12.1976 6.92148 11.3419 9.52402 9.29038 10.8418C7.5562 11.9539 5.34214 11.9057 3.67397 10.8139L4.1894 10.7504C4.47378 10.7148 4.67436 10.4559 4.64136 10.1715C4.60835 9.90996 4.38491 9.71699 4.12847 9.71699C4.10815 9.71699 2.29018 9.94043 2.29018 9.94043C2.15307 9.9582 2.02866 10.0268 1.94487 10.1359C1.86108 10.2451 1.823 10.3822 1.84077 10.5193L2.06167 12.2941C2.09722 12.5785 2.35874 12.7816 2.64057 12.7436C2.92495 12.708 3.12554 12.449 3.08999 12.1646L3.02143 11.6238C5.03745 12.9898 7.74155 13.0686 9.85405 11.7127C12.3144 10.1334 13.3402 7.00527 12.289 4.27578Z" fill="#2468E4"/>
<path d="M12.289 4.27578C12.2103 4.07012 11.9539 3.86445 11.6187 3.97871C11.347 4.07266 11.2175 4.38242 11.3216 4.64902C12.1976 6.92148 11.3419 9.52402 9.29038 10.8418C7.5562 11.9539 5.34214 11.9057 3.67397 10.8139L4.1894 10.7504C4.47378 10.7148 4.67436 10.4559 4.64136 10.1715C4.60835 9.90996 4.38491 9.71699 4.12847 9.71699C4.10815 9.71699 2.29018 9.94043 2.29018 9.94043C2.15307 9.9582 2.02866 10.0268 1.94487 10.1359C1.86108 10.2451 1.823 10.3822 1.84077 10.5193L2.06167 12.2941C2.09722 12.5785 2.35874 12.7816 2.64057 12.7436C2.92495 12.708 3.12554 12.449 3.08999 12.1646L3.02143 11.6238C5.03745 12.9898 7.74155 13.0686 9.85405 11.7127C12.3144 10.1334 13.3402 7.00527 12.289 4.27578Z" stroke="#2468E4" stroke-width="0.4" mask="url(#path-2-outside-2_3242_14430)"/>
</g>
<defs>
<clipPath id="clip0_3242_14430">
<rect width="13" height="13" fill="white"/>
</clipPath>
</defs>
</svg>
