<svg width="140" height="120" viewBox="0 0 140 120" fill="none" xmlns="http://www.w3.org/2000/svg">
<mask id="path-2-outside-1_3159_13739" maskUnits="userSpaceOnUse" x="39.8599" y="1" width="60" height="82" fill="black">
<rect fill="white" x="39.8599" y="1" width="60" height="82"/>
<path d="M99.1397 60.7102C99.1397 56.0449 97.6586 51.6152 94.8566 47.9002C92.274 44.4764 88.6523 41.8753 84.6094 40.52L80.7047 32.2646C80.4855 31.8013 80.0238 31.5015 79.5113 31.4899C78.996 31.4751 78.5239 31.7569 78.2839 32.2099L74.6658 39.0428C74.1524 37.5394 73.1374 36.2406 71.751 35.3775C69.08 33.7127 66.564 31.8952 64.2736 29.9754C63.7003 29.4949 62.8462 29.5702 62.3659 30.1433C61.8855 30.7166 61.9608 31.5705 62.5339 32.051C64.9214 34.0519 67.5404 35.9446 70.3193 37.6763C71.5515 38.4436 72.3051 39.7748 72.3351 41.2356C72.3509 42.0647 72.132 42.8765 71.7032 43.5829L69.5059 47.1976C68.5456 48.7782 68.3659 50.678 69.0131 52.4104C69.6599 54.1421 71.0409 55.4585 72.8018 56.0221L73.281 56.1753C73.0909 56.6402 72.8382 57.203 72.5224 57.803C71.7213 57.4036 70.8326 57.1914 69.9178 57.1914C66.8018 57.1914 64.2478 59.6405 64.0794 62.7142C63.37 62.5111 62.6344 62.1986 61.8766 61.7701C61.6752 61.6562 61.4478 61.5959 61.2163 61.5948C60.2714 61.5905 59.3528 61.3831 58.486 60.978C57.2136 60.3842 56.1458 59.3833 55.4788 58.1594C55.3688 57.9574 55.2091 57.7869 55.0147 57.6636C53.4741 56.6867 52.4302 55.1683 52.0752 53.3869C51.8966 52.4946 51.9024 51.5943 52.0927 50.7116C52.2237 50.1043 51.9243 49.4857 51.3668 49.2113C49.5085 48.297 48.209 46.6098 47.802 44.5851C47.5793 43.4661 47.6496 42.3059 48.0051 41.2301C48.1893 40.673 47.9935 40.0606 47.5204 39.7136C45.7323 38.4017 44.5076 36.4797 44.0717 34.3022C43.6642 32.2633 43.9873 30.1376 44.9814 28.316C45.2168 27.8845 45.2 27.3593 44.9373 26.9437C44.357 26.026 43.9534 25.0146 43.7375 23.9385C43.2551 21.529 43.8056 19.0011 45.2482 17.0027C45.5561 16.5761 45.5892 16.0099 45.3328 15.5506C44.88 14.7389 44.5597 13.87 44.3804 12.9658C43.8545 10.3366 44.5687 8.1307 45.3884 6.60649C46.5917 11.1438 49.9498 19.9908 58.9969 28.8485C59.5311 29.3718 60.3885 29.3627 60.9117 28.8284C61.435 28.294 61.4259 27.4368 60.8916 26.9135C54.6455 20.7981 51.3229 14.681 49.6354 10.626C47.8049 6.22618 47.4479 3.23307 47.445 3.20573C47.3884 2.6937 47.0464 2.25808 46.5623 2.08183C46.0784 1.90543 45.5361 2.01918 45.1637 2.37527C44.9697 2.56074 40.4245 6.99242 41.7253 13.4952C41.905 14.4011 42.1933 15.281 42.5848 16.1199C41.0556 18.6031 40.5084 21.6011 41.0831 24.4712C41.3127 25.6154 41.7056 26.7042 42.2544 27.7173C41.2347 29.9313 40.9366 32.4288 41.4172 34.8336C41.9239 37.3655 43.2481 39.6328 45.1811 41.3084C44.9093 42.5548 44.8961 43.854 45.1473 45.1165C45.6547 47.6404 47.1421 49.7904 49.2863 51.1459C49.1912 52.0674 49.2357 52.996 49.4201 53.9177C49.8984 56.3174 51.262 58.3792 53.2748 59.7595C54.2224 61.3489 55.6549 62.6453 57.3407 63.4322C58.4557 63.9531 59.6335 64.2426 60.8469 64.2948C62.1464 64.9914 63.4251 65.4267 64.6644 65.6036C65.6337 67.5728 67.6778 68.8837 69.9179 68.8837C73.1413 68.8837 75.7638 66.2612 75.7638 63.0378C75.7638 61.7903 75.3597 60.5803 74.6346 59.5877C74.9162 59.0903 75.1599 58.6078 75.3685 58.1614H86.8798C87.6276 58.1614 88.2339 57.5552 88.2339 56.8074C88.2339 56.0596 87.6276 55.4533 86.8798 55.4533H76.3788C76.444 54.8274 76.0652 54.2229 75.4452 54.0246L73.6276 53.4432C72.6623 53.1343 71.9052 52.4124 71.5506 51.463C71.1957 50.5132 71.2943 49.4712 71.8209 48.6045L74.0184 44.9895C74.5105 44.1789 74.828 43.2828 74.9651 42.3523C75.2077 42.3144 75.4518 42.2803 75.6971 42.252C76.4051 42.1694 77.1297 42.1276 77.8511 42.1276C79.6842 42.1276 81.4924 42.3936 83.2267 42.9186C86.9664 44.0461 90.329 46.3945 92.6954 49.5316C94.0563 51.336 95.0588 53.3341 95.6816 55.4533H90.7618C90.014 55.4533 89.4078 56.0596 89.4078 56.8074C89.4078 57.5552 90.014 58.1614 90.7618 58.1614H96.2573C96.3713 58.9997 96.4326 59.8502 96.4326 60.7106V63.462H84.1522C83.6497 63.462 83.1888 63.7403 82.9545 64.1845L79.4592 70.814C79.2061 71.294 79.2641 71.8788 79.6064 72.2999L85.2923 79.2919H59.2672V66.9628C59.2672 66.215 58.661 65.6087 57.9132 65.6087C57.1653 65.6087 56.5591 66.215 56.5591 66.9628V80.646C56.5591 81.3938 57.1653 82 57.9132 82H88.1375C88.66 82 89.1359 81.6994 89.3603 81.2277C89.5846 80.756 89.5178 80.1972 89.1881 79.7916L82.2709 71.2854L84.9681 66.1701H96.4319V71.1474C96.4319 71.8952 97.0382 72.5015 97.786 72.5015C98.5338 72.5015 99.14 71.8952 99.14 71.1474L99.1397 60.7102ZM69.9173 66.1751C68.5439 66.1751 67.3078 65.2584 66.9112 63.9456C66.9112 63.9453 66.9111 63.9451 66.9111 63.9447C66.8226 63.6528 66.7778 63.3475 66.7778 63.0373C66.7778 61.3072 68.1862 59.8995 69.9174 59.8995C70.7093 59.8995 71.4643 60.1947 72.046 60.7331C72.6968 61.3325 73.0554 62.1509 73.0554 63.0373C73.0551 64.7675 71.6474 66.1751 69.9173 66.1751ZM77.8504 39.4191C77.7433 39.4191 77.636 39.4222 77.5288 39.4237L79.4124 35.8664L81.22 39.6881C80.1103 39.5112 78.9846 39.4191 77.8504 39.4191Z"/>
</mask>
<path d="M99.1397 60.7102C99.1397 56.0449 97.6586 51.6152 94.8566 47.9002C92.274 44.4764 88.6523 41.8753 84.6094 40.52L80.7047 32.2646C80.4855 31.8013 80.0238 31.5015 79.5113 31.4899C78.996 31.4751 78.5239 31.7569 78.2839 32.2099L74.6658 39.0428C74.1524 37.5394 73.1374 36.2406 71.751 35.3775C69.08 33.7127 66.564 31.8952 64.2736 29.9754C63.7003 29.4949 62.8462 29.5702 62.3659 30.1433C61.8855 30.7166 61.9608 31.5705 62.5339 32.051C64.9214 34.0519 67.5404 35.9446 70.3193 37.6763C71.5515 38.4436 72.3051 39.7748 72.3351 41.2356C72.3509 42.0647 72.132 42.8765 71.7032 43.5829L69.5059 47.1976C68.5456 48.7782 68.3659 50.678 69.0131 52.4104C69.6599 54.1421 71.0409 55.4585 72.8018 56.0221L73.281 56.1753C73.0909 56.6402 72.8382 57.203 72.5224 57.803C71.7213 57.4036 70.8326 57.1914 69.9178 57.1914C66.8018 57.1914 64.2478 59.6405 64.0794 62.7142C63.37 62.5111 62.6344 62.1986 61.8766 61.7701C61.6752 61.6562 61.4478 61.5959 61.2163 61.5948C60.2714 61.5905 59.3528 61.3831 58.486 60.978C57.2136 60.3842 56.1458 59.3833 55.4788 58.1594C55.3688 57.9574 55.2091 57.7869 55.0147 57.6636C53.4741 56.6867 52.4302 55.1683 52.0752 53.3869C51.8966 52.4946 51.9024 51.5943 52.0927 50.7116C52.2237 50.1043 51.9243 49.4857 51.3668 49.2113C49.5085 48.297 48.209 46.6098 47.802 44.5851C47.5793 43.4661 47.6496 42.3059 48.0051 41.2301C48.1893 40.673 47.9935 40.0606 47.5204 39.7136C45.7323 38.4017 44.5076 36.4797 44.0717 34.3022C43.6642 32.2633 43.9873 30.1376 44.9814 28.316C45.2168 27.8845 45.2 27.3593 44.9373 26.9437C44.357 26.026 43.9534 25.0146 43.7375 23.9385C43.2551 21.529 43.8056 19.0011 45.2482 17.0027C45.5561 16.5761 45.5892 16.0099 45.3328 15.5506C44.88 14.7389 44.5597 13.87 44.3804 12.9658C43.8545 10.3366 44.5687 8.1307 45.3884 6.60649C46.5917 11.1438 49.9498 19.9908 58.9969 28.8485C59.5311 29.3718 60.3885 29.3627 60.9117 28.8284C61.435 28.294 61.4259 27.4368 60.8916 26.9135C54.6455 20.7981 51.3229 14.681 49.6354 10.626C47.8049 6.22618 47.4479 3.23307 47.445 3.20573C47.3884 2.6937 47.0464 2.25808 46.5623 2.08183C46.0784 1.90543 45.5361 2.01918 45.1637 2.37527C44.9697 2.56074 40.4245 6.99242 41.7253 13.4952C41.905 14.4011 42.1933 15.281 42.5848 16.1199C41.0556 18.6031 40.5084 21.6011 41.0831 24.4712C41.3127 25.6154 41.7056 26.7042 42.2544 27.7173C41.2347 29.9313 40.9366 32.4288 41.4172 34.8336C41.9239 37.3655 43.2481 39.6328 45.1811 41.3084C44.9093 42.5548 44.8961 43.854 45.1473 45.1165C45.6547 47.6404 47.1421 49.7904 49.2863 51.1459C49.1912 52.0674 49.2357 52.996 49.4201 53.9177C49.8984 56.3174 51.262 58.3792 53.2748 59.7595C54.2224 61.3489 55.6549 62.6453 57.3407 63.4322C58.4557 63.9531 59.6335 64.2426 60.8469 64.2948C62.1464 64.9914 63.4251 65.4267 64.6644 65.6036C65.6337 67.5728 67.6778 68.8837 69.9179 68.8837C73.1413 68.8837 75.7638 66.2612 75.7638 63.0378C75.7638 61.7903 75.3597 60.5803 74.6346 59.5877C74.9162 59.0903 75.1599 58.6078 75.3685 58.1614H86.8798C87.6276 58.1614 88.2339 57.5552 88.2339 56.8074C88.2339 56.0596 87.6276 55.4533 86.8798 55.4533H76.3788C76.444 54.8274 76.0652 54.2229 75.4452 54.0246L73.6276 53.4432C72.6623 53.1343 71.9052 52.4124 71.5506 51.463C71.1957 50.5132 71.2943 49.4712 71.8209 48.6045L74.0184 44.9895C74.5105 44.1789 74.828 43.2828 74.9651 42.3523C75.2077 42.3144 75.4518 42.2803 75.6971 42.252C76.4051 42.1694 77.1297 42.1276 77.8511 42.1276C79.6842 42.1276 81.4924 42.3936 83.2267 42.9186C86.9664 44.0461 90.329 46.3945 92.6954 49.5316C94.0563 51.336 95.0588 53.3341 95.6816 55.4533H90.7618C90.014 55.4533 89.4078 56.0596 89.4078 56.8074C89.4078 57.5552 90.014 58.1614 90.7618 58.1614H96.2573C96.3713 58.9997 96.4326 59.8502 96.4326 60.7106V63.462H84.1522C83.6497 63.462 83.1888 63.7403 82.9545 64.1845L79.4592 70.814C79.2061 71.294 79.2641 71.8788 79.6064 72.2999L85.2923 79.2919H59.2672V66.9628C59.2672 66.215 58.661 65.6087 57.9132 65.6087C57.1653 65.6087 56.5591 66.215 56.5591 66.9628V80.646C56.5591 81.3938 57.1653 82 57.9132 82H88.1375C88.66 82 89.1359 81.6994 89.3603 81.2277C89.5846 80.756 89.5178 80.1972 89.1881 79.7916L82.2709 71.2854L84.9681 66.1701H96.4319V71.1474C96.4319 71.8952 97.0382 72.5015 97.786 72.5015C98.5338 72.5015 99.14 71.8952 99.14 71.1474L99.1397 60.7102ZM69.9173 66.1751C68.5439 66.1751 67.3078 65.2584 66.9112 63.9456C66.9112 63.9453 66.9111 63.9451 66.9111 63.9447C66.8226 63.6528 66.7778 63.3475 66.7778 63.0373C66.7778 61.3072 68.1862 59.8995 69.9174 59.8995C70.7093 59.8995 71.4643 60.1947 72.046 60.7331C72.6968 61.3325 73.0554 62.1509 73.0554 63.0373C73.0551 64.7675 71.6474 66.1751 69.9173 66.1751ZM77.8504 39.4191C77.7433 39.4191 77.636 39.4222 77.5288 39.4237L79.4124 35.8664L81.22 39.6881C80.1103 39.5112 78.9846 39.4191 77.8504 39.4191Z" fill="#2468E4"/>
<path d="M99.1397 60.7102C99.1397 56.0449 97.6586 51.6152 94.8566 47.9002C92.274 44.4764 88.6523 41.8753 84.6094 40.52L80.7047 32.2646C80.4855 31.8013 80.0238 31.5015 79.5113 31.4899C78.996 31.4751 78.5239 31.7569 78.2839 32.2099L74.6658 39.0428C74.1524 37.5394 73.1374 36.2406 71.751 35.3775C69.08 33.7127 66.564 31.8952 64.2736 29.9754C63.7003 29.4949 62.8462 29.5702 62.3659 30.1433C61.8855 30.7166 61.9608 31.5705 62.5339 32.051C64.9214 34.0519 67.5404 35.9446 70.3193 37.6763C71.5515 38.4436 72.3051 39.7748 72.3351 41.2356C72.3509 42.0647 72.132 42.8765 71.7032 43.5829L69.5059 47.1976C68.5456 48.7782 68.3659 50.678 69.0131 52.4104C69.6599 54.1421 71.0409 55.4585 72.8018 56.0221L73.281 56.1753C73.0909 56.6402 72.8382 57.203 72.5224 57.803C71.7213 57.4036 70.8326 57.1914 69.9178 57.1914C66.8018 57.1914 64.2478 59.6405 64.0794 62.7142C63.37 62.5111 62.6344 62.1986 61.8766 61.7701C61.6752 61.6562 61.4478 61.5959 61.2163 61.5948C60.2714 61.5905 59.3528 61.3831 58.486 60.978C57.2136 60.3842 56.1458 59.3833 55.4788 58.1594C55.3688 57.9574 55.2091 57.7869 55.0147 57.6636C53.4741 56.6867 52.4302 55.1683 52.0752 53.3869C51.8966 52.4946 51.9024 51.5943 52.0927 50.7116C52.2237 50.1043 51.9243 49.4857 51.3668 49.2113C49.5085 48.297 48.209 46.6098 47.802 44.5851C47.5793 43.4661 47.6496 42.3059 48.0051 41.2301C48.1893 40.673 47.9935 40.0606 47.5204 39.7136C45.7323 38.4017 44.5076 36.4797 44.0717 34.3022C43.6642 32.2633 43.9873 30.1376 44.9814 28.316C45.2168 27.8845 45.2 27.3593 44.9373 26.9437C44.357 26.026 43.9534 25.0146 43.7375 23.9385C43.2551 21.529 43.8056 19.0011 45.2482 17.0027C45.5561 16.5761 45.5892 16.0099 45.3328 15.5506C44.88 14.7389 44.5597 13.87 44.3804 12.9658C43.8545 10.3366 44.5687 8.1307 45.3884 6.60649C46.5917 11.1438 49.9498 19.9908 58.9969 28.8485C59.5311 29.3718 60.3885 29.3627 60.9117 28.8284C61.435 28.294 61.4259 27.4368 60.8916 26.9135C54.6455 20.7981 51.3229 14.681 49.6354 10.626C47.8049 6.22618 47.4479 3.23307 47.445 3.20573C47.3884 2.6937 47.0464 2.25808 46.5623 2.08183C46.0784 1.90543 45.5361 2.01918 45.1637 2.37527C44.9697 2.56074 40.4245 6.99242 41.7253 13.4952C41.905 14.4011 42.1933 15.281 42.5848 16.1199C41.0556 18.6031 40.5084 21.6011 41.0831 24.4712C41.3127 25.6154 41.7056 26.7042 42.2544 27.7173C41.2347 29.9313 40.9366 32.4288 41.4172 34.8336C41.9239 37.3655 43.2481 39.6328 45.1811 41.3084C44.9093 42.5548 44.8961 43.854 45.1473 45.1165C45.6547 47.6404 47.1421 49.7904 49.2863 51.1459C49.1912 52.0674 49.2357 52.996 49.4201 53.9177C49.8984 56.3174 51.262 58.3792 53.2748 59.7595C54.2224 61.3489 55.6549 62.6453 57.3407 63.4322C58.4557 63.9531 59.6335 64.2426 60.8469 64.2948C62.1464 64.9914 63.4251 65.4267 64.6644 65.6036C65.6337 67.5728 67.6778 68.8837 69.9179 68.8837C73.1413 68.8837 75.7638 66.2612 75.7638 63.0378C75.7638 61.7903 75.3597 60.5803 74.6346 59.5877C74.9162 59.0903 75.1599 58.6078 75.3685 58.1614H86.8798C87.6276 58.1614 88.2339 57.5552 88.2339 56.8074C88.2339 56.0596 87.6276 55.4533 86.8798 55.4533H76.3788C76.444 54.8274 76.0652 54.2229 75.4452 54.0246L73.6276 53.4432C72.6623 53.1343 71.9052 52.4124 71.5506 51.463C71.1957 50.5132 71.2943 49.4712 71.8209 48.6045L74.0184 44.9895C74.5105 44.1789 74.828 43.2828 74.9651 42.3523C75.2077 42.3144 75.4518 42.2803 75.6971 42.252C76.4051 42.1694 77.1297 42.1276 77.8511 42.1276C79.6842 42.1276 81.4924 42.3936 83.2267 42.9186C86.9664 44.0461 90.329 46.3945 92.6954 49.5316C94.0563 51.336 95.0588 53.3341 95.6816 55.4533H90.7618C90.014 55.4533 89.4078 56.0596 89.4078 56.8074C89.4078 57.5552 90.014 58.1614 90.7618 58.1614H96.2573C96.3713 58.9997 96.4326 59.8502 96.4326 60.7106V63.462H84.1522C83.6497 63.462 83.1888 63.7403 82.9545 64.1845L79.4592 70.814C79.2061 71.294 79.2641 71.8788 79.6064 72.2999L85.2923 79.2919H59.2672V66.9628C59.2672 66.215 58.661 65.6087 57.9132 65.6087C57.1653 65.6087 56.5591 66.215 56.5591 66.9628V80.646C56.5591 81.3938 57.1653 82 57.9132 82H88.1375C88.66 82 89.1359 81.6994 89.3603 81.2277C89.5846 80.756 89.5178 80.1972 89.1881 79.7916L82.2709 71.2854L84.9681 66.1701H96.4319V71.1474C96.4319 71.8952 97.0382 72.5015 97.786 72.5015C98.5338 72.5015 99.14 71.8952 99.14 71.1474L99.1397 60.7102ZM69.9173 66.1751C68.5439 66.1751 67.3078 65.2584 66.9112 63.9456C66.9112 63.9453 66.9111 63.9451 66.9111 63.9447C66.8226 63.6528 66.7778 63.3475 66.7778 63.0373C66.7778 61.3072 68.1862 59.8995 69.9174 59.8995C70.7093 59.8995 71.4643 60.1947 72.046 60.7331C72.6968 61.3325 73.0554 62.1509 73.0554 63.0373C73.0551 64.7675 71.6474 66.1751 69.9173 66.1751ZM77.8504 39.4191C77.7433 39.4191 77.636 39.4222 77.5288 39.4237L79.4124 35.8664L81.22 39.6881C80.1103 39.5112 78.9846 39.4191 77.8504 39.4191Z" stroke="#2468E4" stroke-width="0.4" mask="url(#path-2-outside-1_3159_13739)"/>
<path d="M20.2344 102.828C20.931 102.815 21.5951 102.952 22.2266 103.238C22.8646 103.518 23.4115 103.909 23.8672 104.41C24.3294 104.905 24.694 105.51 24.9609 106.227C25.2344 106.936 25.3646 107.695 25.3516 108.502C25.3646 109.576 25.14 110.553 24.6777 111.432C24.222 112.311 23.6003 112.991 22.8125 113.473C22.0247 113.954 21.1654 114.186 20.2344 114.166C19.3424 114.166 18.5807 114.029 17.9492 113.756C17.3242 113.476 16.8685 113.069 16.582 112.535L16.4355 114H13.3008V99H16.582V104.459C16.875 103.945 17.3405 103.544 17.9785 103.258C18.623 102.971 19.375 102.828 20.2344 102.828ZM19.3359 111.393C20.1042 111.393 20.752 111.122 21.2793 110.582C21.8066 110.048 22.0703 109.355 22.0703 108.502C22.0703 107.649 21.8066 106.952 21.2793 106.412C20.752 105.878 20.1042 105.611 19.3359 105.611C18.5612 105.611 17.9102 105.878 17.3828 106.412C16.849 106.946 16.582 107.643 16.582 108.502C16.582 109.355 16.849 110.048 17.3828 110.582C17.9102 111.122 18.5612 111.393 19.3359 111.393ZM31.6602 111.188L34.1504 103.004H37.7246L33.5742 113.775C32.9818 115.318 32.168 116.406 31.1328 117.037C30.1107 117.662 28.7533 117.877 27.0605 117.682L26.8945 115.27C27.819 115.302 28.4993 115.211 28.9355 114.996C29.3783 114.781 29.6159 114.4 29.6484 113.854L25.5859 103.004H29.1602L31.6602 111.188ZM43.916 99.9961H54.4238V102.77H50.9277V114H47.4219V102.77H43.916V99.9961ZM67.4023 114H64.1211V108.502C64.1211 107.532 63.9421 106.809 63.584 106.334C63.2324 105.852 62.6758 105.611 61.9141 105.611C61.1458 105.611 60.5371 105.872 60.0879 106.393C59.6387 106.92 59.4141 107.623 59.4141 108.502V114H56.1328V99H59.4141V104.459C59.707 103.945 60.1693 103.544 60.8008 103.258C61.4388 102.971 62.1875 102.828 63.0469 102.828C64.6094 102.828 65.7259 103.31 66.3965 104.273C67.0671 105.237 67.4023 106.646 67.4023 108.502V114ZM74.9023 114.166C73.2357 114.166 71.8262 113.671 70.6738 112.682C70.1139 112.2 69.6712 111.594 69.3457 110.865C69.0267 110.136 68.8672 109.348 68.8672 108.502C68.8672 107.649 69.0267 106.858 69.3457 106.129C69.6712 105.4 70.1139 104.794 70.6738 104.312C71.8392 103.323 73.2487 102.828 74.9023 102.828C75.7031 102.828 76.4681 102.958 77.1973 103.219C77.9264 103.473 78.5677 103.837 79.1211 104.312C79.681 104.794 80.1204 105.4 80.4395 106.129C80.765 106.858 80.9277 107.649 80.9277 108.502C80.9277 109.348 80.765 110.136 80.4395 110.865C80.1204 111.594 79.681 112.2 79.1211 112.682C78.5677 113.157 77.9264 113.525 77.1973 113.785C76.4681 114.039 75.7031 114.166 74.9023 114.166ZM72.9492 110.592C73.4766 111.132 74.1276 111.402 74.9023 111.402C75.6706 111.402 76.3249 111.132 76.8652 110.592C77.3926 110.051 77.6562 109.355 77.6562 108.502C77.6562 107.649 77.3926 106.952 76.8652 106.412C76.3249 105.872 75.6706 105.602 74.9023 105.602C74.1276 105.602 73.4766 105.872 72.9492 106.412C72.4154 106.946 72.1484 107.643 72.1484 108.502C72.1484 109.361 72.4154 110.058 72.9492 110.592ZM82.4609 114V103.004H85.5957L85.7422 104.303C86.1133 103.782 86.5853 103.408 87.1582 103.18C87.7376 102.945 88.4766 102.828 89.375 102.828V105.611C88.1966 105.611 87.2949 105.865 86.6699 106.373C86.0514 106.881 85.7422 107.59 85.7422 108.502V114H82.4609ZM100.166 114H91.1523V99.9961H94.6484L94.6387 111.227H100.166V114ZM106.025 102.828C106.885 102.828 107.633 102.971 108.271 103.258C108.916 103.544 109.388 103.945 109.688 104.459L109.824 103.004H112.959V114H109.824L109.688 112.535C109.108 113.622 107.887 114.166 106.025 114.166C105.094 114.186 104.235 113.954 103.447 113.473C102.66 112.991 102.035 112.311 101.572 111.432C101.11 110.553 100.885 109.576 100.898 108.502C100.892 107.695 101.022 106.936 101.289 106.227C101.556 105.51 101.921 104.905 102.383 104.41C102.845 103.909 103.392 103.518 104.023 103.238C104.661 102.952 105.329 102.815 106.025 102.828ZM104.98 110.582C105.508 111.122 106.159 111.393 106.934 111.393C107.702 111.393 108.356 111.122 108.896 110.582C109.424 110.048 109.688 109.355 109.688 108.502C109.688 107.649 109.424 106.952 108.896 106.412C108.363 105.878 107.708 105.611 106.934 105.611C106.159 105.611 105.508 105.878 104.98 106.412C104.453 106.952 104.189 107.649 104.189 108.502C104.189 109.355 104.453 110.048 104.98 110.582ZM121.914 102.828C122.611 102.815 123.275 102.952 123.906 103.238C124.544 103.518 125.091 103.909 125.547 104.41C126.009 104.905 126.374 105.51 126.641 106.227C126.914 106.936 127.044 107.695 127.031 108.502C127.044 109.576 126.82 110.553 126.357 111.432C125.902 112.311 125.28 112.991 124.492 113.473C123.704 113.954 122.845 114.186 121.914 114.166C121.022 114.166 120.26 114.029 119.629 113.756C119.004 113.476 118.548 113.069 118.262 112.535L118.115 114H114.98V99H118.262V104.459C118.555 103.945 119.02 103.544 119.658 103.258C120.303 102.971 121.055 102.828 121.914 102.828ZM121.016 111.393C121.784 111.393 122.432 111.122 122.959 110.582C123.486 110.048 123.75 109.355 123.75 108.502C123.75 107.649 123.486 106.952 122.959 106.412C122.432 105.878 121.784 105.611 121.016 105.611C120.241 105.611 119.59 105.878 119.062 106.412C118.529 106.946 118.262 107.643 118.262 108.502C118.262 109.355 118.529 110.048 119.062 110.582C119.59 111.122 120.241 111.393 121.016 111.393Z" fill="#2468E4"/>
</svg>
